<svg width="1668" height="91" viewBox="0 0 1668 91" fill="none" xmlns="http://www.w3.org/2000/svg">
<path d="M35.3402 86.7933V21.9416H0.768936V0.978168H112V21.9416H59.6136V86.7933H35.3402Z" fill="url(#paint0_diamond_16_44)"/>
<path d="M136.277 89V3.18484H215.84V23.1675H159.57V69.0173H217.679V89H136.277ZM165.5 54.9191V36.0398H210.937V54.9191H165.5Z" fill="url(#paint1_diamond_16_44)"/>
<path d="M303.957 90.2259C296.274 90.2259 289.123 89.1635 282.503 87.0385C275.883 84.9136 270.08 81.8896 265.095 77.9666C260.109 74.0436 256.227 69.3442 253.449 63.8684C250.67 58.3926 249.28 52.3038 249.28 45.6021C249.28 38.982 250.67 32.9341 253.449 27.4583C256.309 21.9825 260.191 17.2831 265.095 13.3601C269.999 9.43709 275.72 6.41313 282.258 4.28818C288.878 2.08151 295.988 0.978168 303.589 0.978168C309.065 0.978168 314.296 1.55027 319.281 2.69447C324.266 3.83867 328.925 5.39152 333.257 7.35301C337.588 9.23277 341.307 11.3986 344.413 13.8504L330.805 32.7298C328.843 31.0952 326.514 29.5424 323.817 28.0712C321.12 26.5184 318.014 25.2925 314.5 24.3934C310.986 23.4127 306.899 22.9223 302.241 22.9223C298.808 22.9223 295.457 23.4127 292.188 24.3934C288.919 25.2925 285.895 26.7227 283.116 28.6842C280.419 30.564 278.253 32.9341 276.619 35.7946C275.066 38.6551 274.289 42.006 274.289 45.8472C274.289 49.6885 275.147 53.0394 276.864 55.8999C278.58 58.7604 280.909 61.1305 283.852 63.0103C286.876 64.89 290.226 66.3203 293.904 67.301C297.582 68.2 301.382 68.6495 305.305 68.6495C309.964 68.6495 314.05 68.0366 317.565 66.8106C321.079 65.503 324.144 63.991 326.759 62.2747C329.374 60.5584 331.704 59.0056 333.747 57.6162L345.026 76.1277C342.574 78.0892 339.223 80.1733 334.973 82.38C330.805 84.5866 326.064 86.4664 320.752 88.0193C315.44 89.4904 309.841 90.2259 303.957 90.2259Z" fill="url(#paint2_diamond_16_44)"/>
<path d="M447.014 89V3.18484H471.288V89H447.014ZM377.872 89V3.18484H402.145V89H377.872ZM413 57.6162V36.0398H439V57.6162H413Z" fill="url(#paint3_diamond_16_44)"/>
<path d="M578.762 89V44.6213V3.18484H625.592C633.765 3.18484 641.039 4.36991 647.414 6.74005C653.87 9.02845 659.305 12.175 663.719 16.1797C668.132 20.1844 671.483 24.7612 673.771 29.9101C676.141 35.059 677.326 40.4531 677.326 46.0924C677.326 51.8134 676.141 57.2893 673.771 62.5199C671.483 67.6688 668.091 72.2456 663.596 76.2503C659.183 80.1733 653.789 83.279 647.414 85.5674C641.039 87.8558 633.765 89 625.592 89H578.762ZM603.035 73.5533L599.235 68.0366H624.979C629.72 68.0366 633.806 67.4236 637.239 66.1977C640.671 64.89 643.45 63.1737 645.575 61.0488C647.782 58.9238 649.416 56.5946 650.479 54.061C651.623 51.4457 652.195 48.7895 652.195 46.0924C652.195 43.3954 651.623 40.7801 650.479 38.2465C649.416 35.6311 647.782 33.261 645.575 31.1361C643.45 29.0111 640.671 27.3357 637.239 26.1098C633.806 24.8021 629.72 24.1483 624.979 24.1483H598.867L603.035 18.8768V73.5533Z" fill="url(#paint4_diamond_16_44)"/>
<path d="M712.608 89V3.18484H792.171V23.1675H735.901V69.0173H794.01V89H712.608ZM743 54.9191V36.5302L787.268 36.0398V54.9191H743Z" fill="url(#paint5_diamond_16_44)"/>
<path d="M870.971 90.2259C863.697 90.2259 857.036 89.613 850.988 88.387C844.94 87.0794 839.464 85.4039 834.561 83.3607C829.657 81.3175 825.203 79.1517 821.198 76.8633L831.251 57.4936C838.606 61.9887 845.921 65.2169 853.195 67.1784C860.55 69.1399 867.211 70.1207 873.178 70.1207C875.221 70.1207 877.468 69.9981 879.92 69.7529C882.454 69.426 884.579 68.7721 886.295 67.7914C888.093 66.8107 888.992 65.2578 888.992 63.1329C888.992 61.9887 888.624 61.0896 887.889 60.4358C887.235 59.7003 886.213 59.0873 884.824 58.5969C883.435 58.1065 881.718 57.6979 879.675 57.371C877.714 57.0441 875.466 56.7989 872.932 56.6354C870.481 56.3902 867.743 56.1451 864.719 55.8999C858.916 55.4095 853.644 54.5105 848.904 53.2028C844.246 51.8952 840.2 50.1789 836.767 48.0539C833.417 45.8472 830.801 43.1911 828.921 40.0854C827.123 36.9797 826.224 33.4245 826.224 29.4198C826.224 24.843 827.369 20.7974 829.657 17.283C831.945 13.687 835.133 10.7039 839.219 8.33375C843.306 5.88189 848.005 4.043 853.318 2.81707C858.63 1.59114 864.31 0.978168 870.358 0.978168C876.733 0.978168 882.413 1.50941 887.398 2.57188C892.466 3.63435 896.92 5.02374 900.761 6.74005C904.684 8.45635 907.912 10.1727 910.446 11.889L899.78 28.5616C897.165 27.0088 894.1 25.7011 890.586 24.6386C887.153 23.5762 883.598 22.7589 879.92 22.1868C876.324 21.5329 872.81 21.206 869.377 21.206C866.108 21.206 863.125 21.4103 860.428 21.819C857.813 22.2276 855.729 22.9223 854.176 23.9031C852.705 24.8021 851.969 26.0689 851.969 27.7035C851.969 29.1746 852.705 30.3596 854.176 31.2587C855.729 32.0759 857.649 32.7298 859.938 33.2201C862.308 33.6288 864.76 33.9557 867.293 34.2009C869.827 34.3644 872.115 34.5687 874.158 34.8139C879.062 35.2225 883.884 35.7946 888.624 36.5302C893.446 37.2657 897.819 38.4917 901.742 40.208C905.665 41.9243 908.77 44.417 911.059 47.6861C913.429 50.9553 914.614 55.3686 914.614 60.9262C914.614 67.1376 912.693 72.4499 908.852 76.8633C905.011 81.1949 899.78 84.5049 893.16 86.7933C886.622 89.0817 879.226 90.2259 870.971 90.2259Z" fill="url(#paint6_diamond_16_44)"/>
<path d="M951.162 89V68.2818H974.7V23.9031H951.162V3.18484H1022.39V23.9031H998.973V68.2818H1022.39V89H951.162Z" fill="url(#paint7_diamond_16_44)"/>
<path d="M1111.17 90.2259C1103.57 90.2259 1096.58 89.3269 1090.2 87.5289C1083.83 85.6491 1078.31 82.8703 1073.65 79.1926C1069 75.5148 1065.4 70.8971 1062.87 65.3395C1060.33 59.7003 1059.07 53.1211 1059.07 45.6021C1059.07 39.1455 1060.41 33.2201 1063.11 27.8261C1065.89 22.3502 1069.77 17.61 1074.76 13.6053C1079.74 9.60055 1085.63 6.49486 1092.41 4.28818C1099.28 2.08151 1106.79 0.978168 1114.97 0.978168C1121.59 0.978168 1127.64 1.67286 1133.11 3.06225C1138.59 4.45164 1143.37 6.20881 1147.45 8.33375C1151.62 10.4587 1155.01 12.6654 1157.63 14.9538L1143.16 31.1361C1140.88 29.5015 1138.3 28.0304 1135.44 26.7227C1132.66 25.3333 1129.56 24.1891 1126.12 23.2901C1122.69 22.3911 1118.85 21.9416 1114.6 21.9416C1110.35 21.9416 1106.39 22.5546 1102.71 23.7805C1099.11 24.9247 1095.97 26.5593 1093.27 28.6842C1090.57 30.7274 1088.45 33.2202 1086.89 36.1624C1085.42 39.0229 1084.69 42.1694 1084.69 45.6021C1084.69 50.1789 1085.46 53.9792 1087.02 57.0032C1088.65 60.0272 1090.86 62.4382 1093.64 64.2362C1096.42 66.0342 1099.56 67.3419 1103.08 68.1592C1106.67 68.8947 1110.39 69.2625 1114.23 69.2625C1118.32 69.2625 1122.04 68.8947 1125.39 68.1592C1128.82 67.4236 1131.76 66.402 1134.21 65.0943C1136.67 63.7867 1138.59 62.193 1139.98 60.3132C1141.37 58.4335 1142.02 56.3494 1141.94 54.061V51.4865L1145.25 57.6162H1112.27V40.208H1164.74C1164.82 41.4339 1164.9 42.905 1164.99 44.6213C1165.07 46.3376 1165.11 47.8905 1165.11 49.2798C1165.19 50.6692 1165.23 51.5274 1165.23 51.8543C1165.23 58.2291 1163.92 63.8276 1161.31 68.6495C1158.77 73.3898 1155.14 77.3537 1150.4 80.5411C1145.66 83.7285 1139.98 86.1395 1133.36 87.7741C1126.74 89.4086 1119.34 90.2259 1111.17 90.2259Z" fill="url(#paint8_diamond_16_44)"/>
<path d="M1199.99 89V3.18484H1222.91L1281.76 60.3132L1277.96 59.0873C1277.47 55.6547 1277.06 52.5081 1276.73 49.6476C1276.49 46.7871 1276.28 44.1309 1276.12 41.6791C1275.95 39.2272 1275.83 36.8979 1275.75 34.6913C1275.67 32.4846 1275.59 30.2779 1275.51 28.0712C1275.51 25.8646 1275.51 23.5762 1275.51 21.206V3.18484H1298.92V89H1275.75L1213.72 27.7035L1220.95 29.7875C1221.2 30.85 1221.44 32.0759 1221.69 33.4653C1221.93 34.773 1222.14 36.3258 1222.3 38.1239C1222.54 39.8402 1222.75 41.8834 1222.91 44.2535C1223.08 46.6237 1223.2 49.4024 1223.28 52.5899C1223.36 55.7773 1223.4 59.4142 1223.4 63.5006V89H1199.99Z" fill="url(#paint9_diamond_16_44)"/>
<path d="M1339.82 89V3.18484H1419.38V23.1675H1363.11V69.0173H1421.22V89H1339.82ZM1367.5 54.9191V36.0398H1414.48V54.9191H1367.5Z" fill="url(#paint10_diamond_16_44)"/>
<path d="M1458.46 89V3.18484H1508.11C1515.71 3.18484 1522.05 4.28818 1527.11 6.49486C1532.26 8.70153 1536.11 11.889 1538.64 16.0571C1541.25 20.2253 1542.56 25.2107 1542.56 31.0135C1542.56 36.7345 1541.09 41.8017 1538.15 46.215C1535.29 50.6284 1531.32 54.1018 1526.26 56.6354C1521.27 59.169 1515.59 60.4358 1509.22 60.4358H1481.27V89H1458.46ZM1519.88 89L1490.7 50.2606L1516.08 47.1958L1547.71 89H1519.88ZM1481.27 43.0276H1506.27C1508.4 43.0276 1510.36 42.6598 1512.16 41.9243C1513.96 41.107 1515.43 39.9219 1516.57 38.3691C1517.72 36.8162 1518.29 34.9365 1518.29 32.7298C1518.29 30.4414 1517.72 28.5616 1516.57 27.0905C1515.43 25.6194 1513.92 24.516 1512.04 23.7805C1510.24 23.0449 1508.19 22.6771 1505.91 22.6771H1481.27V43.0276Z" fill="url(#paint11_diamond_16_44)"/>
<path d="M1623.41 90.2259C1616.14 90.2259 1609.48 89.613 1603.43 88.387C1597.38 87.0794 1591.9 85.4039 1587 83.3607C1582.1 81.3175 1577.64 79.1517 1573.64 76.8633L1583.69 57.4936C1591.05 61.9887 1598.36 65.2169 1605.63 67.1784C1612.99 69.1399 1619.65 70.1207 1625.62 70.1207C1627.66 70.1207 1629.91 69.9981 1632.36 69.7529C1634.89 69.426 1637.02 68.7721 1638.73 67.7914C1640.53 66.8107 1641.43 65.2578 1641.43 63.1329C1641.43 61.9887 1641.06 61.0896 1640.33 60.4358C1639.67 59.7003 1638.65 59.0873 1637.26 58.5969C1635.87 58.1065 1634.16 57.6979 1632.11 57.371C1630.15 57.0441 1627.9 56.7989 1625.37 56.6354C1622.92 56.3902 1620.18 56.1451 1617.16 55.8999C1611.35 55.4095 1606.08 54.5105 1601.34 53.2028C1596.68 51.8952 1592.64 50.1789 1589.21 48.0539C1585.86 45.8472 1583.24 43.1911 1581.36 40.0854C1579.56 36.9797 1578.66 33.4245 1578.66 29.4198C1578.66 24.843 1579.81 20.7974 1582.1 17.283C1584.38 13.687 1587.57 10.7039 1591.66 8.33375C1595.74 5.88189 1600.44 4.043 1605.76 2.81707C1611.07 1.59114 1616.75 0.978168 1622.8 0.978168C1629.17 0.978168 1634.85 1.50941 1639.84 2.57188C1644.9 3.63435 1649.36 5.02374 1653.2 6.74005C1657.12 8.45635 1660.35 10.1727 1662.88 11.889L1652.22 28.5616C1649.6 27.0088 1646.54 25.7011 1643.02 24.6386C1639.59 23.5762 1636.04 22.7589 1632.36 22.1868C1628.76 21.5329 1625.25 21.206 1621.82 21.206C1618.55 21.206 1615.56 21.4103 1612.87 21.819C1610.25 22.2276 1608.17 22.9223 1606.61 23.9031C1605.14 24.8021 1604.41 26.0689 1604.41 27.7035C1604.41 29.1746 1605.14 30.3596 1606.61 31.2587C1608.17 32.0759 1610.09 32.7298 1612.38 33.2201C1614.75 33.6288 1617.2 33.9557 1619.73 34.2009C1622.27 34.3644 1624.55 34.5687 1626.6 34.8139C1631.5 35.2225 1636.32 35.7946 1641.06 36.5302C1645.89 37.2657 1650.26 38.4917 1654.18 40.208C1658.1 41.9243 1661.21 44.417 1663.5 47.6861C1665.87 50.9553 1667.05 55.3686 1667.05 60.9262C1667.05 67.1376 1665.13 72.4499 1661.29 76.8633C1657.45 81.1949 1652.22 84.5049 1645.6 86.7933C1639.06 89.0817 1631.66 90.2259 1623.41 90.2259Z" fill="url(#paint12_diamond_16_44)"/>
<defs>
<radialGradient id="paint0_diamond_16_44" cx="0" cy="0" r="1" gradientUnits="userSpaceOnUse" gradientTransform="translate(-14.9999 60) rotate(8.60032) scale(1792.15 1774.58)">
<stop offset="0.00847224" stop-color="#DA8300"/>
<stop offset="0.2804" stop-color="#DE27E2"/>
<stop offset="0.787957" stop-color="#DE27E2"/>
<stop offset="0.977479" stop-color="#DA8300"/>
</radialGradient>
<radialGradient id="paint1_diamond_16_44" cx="0" cy="0" r="1" gradientUnits="userSpaceOnUse" gradientTransform="translate(-14.9999 60) rotate(8.60032) scale(1792.15 1774.58)">
<stop offset="0.00847224" stop-color="#DA8300"/>
<stop offset="0.2804" stop-color="#DE27E2"/>
<stop offset="0.787957" stop-color="#DE27E2"/>
<stop offset="0.977479" stop-color="#DA8300"/>
</radialGradient>
<radialGradient id="paint2_diamond_16_44" cx="0" cy="0" r="1" gradientUnits="userSpaceOnUse" gradientTransform="translate(-14.9999 60) rotate(8.60032) scale(1792.15 1774.58)">
<stop offset="0.00847224" stop-color="#DA8300"/>
<stop offset="0.2804" stop-color="#DE27E2"/>
<stop offset="0.787957" stop-color="#DE27E2"/>
<stop offset="0.977479" stop-color="#DA8300"/>
</radialGradient>
<radialGradient id="paint3_diamond_16_44" cx="0" cy="0" r="1" gradientUnits="userSpaceOnUse" gradientTransform="translate(-14.9999 60) rotate(8.60032) scale(1792.15 1774.58)">
<stop offset="0.00847224" stop-color="#DA8300"/>
<stop offset="0.2804" stop-color="#DE27E2"/>
<stop offset="0.787957" stop-color="#DE27E2"/>
<stop offset="0.977479" stop-color="#DA8300"/>
</radialGradient>
<radialGradient id="paint4_diamond_16_44" cx="0" cy="0" r="1" gradientUnits="userSpaceOnUse" gradientTransform="translate(-14.9999 60) rotate(8.60032) scale(1792.15 1774.58)">
<stop offset="0.00847224" stop-color="#DA8300"/>
<stop offset="0.2804" stop-color="#DE27E2"/>
<stop offset="0.787957" stop-color="#DE27E2"/>
<stop offset="0.977479" stop-color="#DA8300"/>
</radialGradient>
<radialGradient id="paint5_diamond_16_44" cx="0" cy="0" r="1" gradientUnits="userSpaceOnUse" gradientTransform="translate(-14.9999 60) rotate(8.60032) scale(1792.15 1774.58)">
<stop offset="0.00847224" stop-color="#DA8300"/>
<stop offset="0.2804" stop-color="#DE27E2"/>
<stop offset="0.787957" stop-color="#DE27E2"/>
<stop offset="0.977479" stop-color="#DA8300"/>
</radialGradient>
<radialGradient id="paint6_diamond_16_44" cx="0" cy="0" r="1" gradientUnits="userSpaceOnUse" gradientTransform="translate(-14.9999 60) rotate(8.60032) scale(1792.15 1774.58)">
<stop offset="0.00847224" stop-color="#DA8300"/>
<stop offset="0.2804" stop-color="#DE27E2"/>
<stop offset="0.787957" stop-color="#DE27E2"/>
<stop offset="0.977479" stop-color="#DA8300"/>
</radialGradient>
<radialGradient id="paint7_diamond_16_44" cx="0" cy="0" r="1" gradientUnits="userSpaceOnUse" gradientTransform="translate(-14.9999 60) rotate(8.60032) scale(1792.15 1774.58)">
<stop offset="0.00847224" stop-color="#DA8300"/>
<stop offset="0.2804" stop-color="#DE27E2"/>
<stop offset="0.787957" stop-color="#DE27E2"/>
<stop offset="0.977479" stop-color="#DA8300"/>
</radialGradient>
<radialGradient id="paint8_diamond_16_44" cx="0" cy="0" r="1" gradientUnits="userSpaceOnUse" gradientTransform="translate(-14.9999 60) rotate(8.60032) scale(1792.15 1774.58)">
<stop offset="0.00847224" stop-color="#DA8300"/>
<stop offset="0.2804" stop-color="#DE27E2"/>
<stop offset="0.787957" stop-color="#DE27E2"/>
<stop offset="0.977479" stop-color="#DA8300"/>
</radialGradient>
<radialGradient id="paint9_diamond_16_44" cx="0" cy="0" r="1" gradientUnits="userSpaceOnUse" gradientTransform="translate(-14.9999 60) rotate(8.60032) scale(1792.15 1774.58)">
<stop offset="0.00847224" stop-color="#DA8300"/>
<stop offset="0.2804" stop-color="#DE27E2"/>
<stop offset="0.787957" stop-color="#DE27E2"/>
<stop offset="0.977479" stop-color="#DA8300"/>
</radialGradient>
<radialGradient id="paint10_diamond_16_44" cx="0" cy="0" r="1" gradientUnits="userSpaceOnUse" gradientTransform="translate(-14.9999 60) rotate(8.60032) scale(1792.15 1774.58)">
<stop offset="0.00847224" stop-color="#DA8300"/>
<stop offset="0.2804" stop-color="#DE27E2"/>
<stop offset="0.787957" stop-color="#DE27E2"/>
<stop offset="0.977479" stop-color="#DA8300"/>
</radialGradient>
<radialGradient id="paint11_diamond_16_44" cx="0" cy="0" r="1" gradientUnits="userSpaceOnUse" gradientTransform="translate(-14.9999 60) rotate(8.60032) scale(1792.15 1774.58)">
<stop offset="0.00847224" stop-color="#DA8300"/>
<stop offset="0.2804" stop-color="#DE27E2"/>
<stop offset="0.787957" stop-color="#DE27E2"/>
<stop offset="0.977479" stop-color="#DA8300"/>
</radialGradient>
<radialGradient id="paint12_diamond_16_44" cx="0" cy="0" r="1" gradientUnits="userSpaceOnUse" gradientTransform="translate(-14.9999 60) rotate(8.60032) scale(1792.15 1774.58)">
<stop offset="0.00847224" stop-color="#DA8300"/>
<stop offset="0.2804" stop-color="#DE27E2"/>
<stop offset="0.787957" stop-color="#DE27E2"/>
<stop offset="0.977479" stop-color="#DA8300"/>
</radialGradient>
</defs>
</svg>
