<svg xmlns="http://www.w3.org/2000/svg" xmlns:xlink="http://www.w3.org/1999/xlink" width="500" zoomAndPan="magnify" viewBox="0 0 375 374.999991" height="500" preserveAspectRatio="xMidYMid meet" version="1.0"><defs><clipPath id="2a88628498"><path d="M 24.207031 83.171875 L 350.457031 83.171875 L 350.457031 321.671875 L 24.207031 321.671875 Z M 24.207031 83.171875 " clip-rule="nonzero"/></clipPath></defs><g clip-path="url(#2a88628498)"><path fill="#bf76ff" d="M 61.980469 83.566406 C 58.113281 83.566406 54.488281 84.300781 51.011719 85.378906 L 87.542969 108.671875 L 287.125 108.671875 L 323.652344 85.378906 C 320.175781 84.300781 316.550781 83.566406 312.683594 83.566406 Z M 38.332031 92.195312 C 29.859375 99.109375 24.375 109.503906 24.375 121.222656 L 24.375 284.40625 C 24.375 305.148438 41.269531 322.066406 61.980469 322.066406 L 312.683594 322.066406 C 333.394531 322.066406 350.289062 305.148438 350.289062 284.40625 L 350.289062 121.222656 C 350.289062 109.503906 344.804688 99.109375 336.332031 92.195312 L 187.332031 187.125 Z M 61.980469 151.527344 L 187.332031 231.453125 L 312.683594 151.527344 L 312.683594 296.960938 L 61.980469 296.960938 Z M 61.980469 151.527344 " fill-opacity="1" fill-rule="nonzero"/></g></svg>