<svg xmlns="http://www.w3.org/2000/svg" xmlns:xlink="http://www.w3.org/1999/xlink" width="500" zoomAndPan="magnify" viewBox="0 0 375 374.999991" height="500" preserveAspectRatio="xMidYMid meet" version="1.0"><path fill="#c17efd" d="M 197.636719 225.234375 C 198.679688 225.234375 199.726562 225.207031 200.769531 225.15625 C 201.8125 225.105469 202.855469 225.027344 203.894531 224.925781 C 204.933594 224.824219 205.96875 224.695312 207.003906 224.542969 C 208.039062 224.386719 209.066406 224.207031 210.089844 224.003906 C 211.117188 223.800781 212.132812 223.570312 213.148438 223.316406 C 214.160156 223.0625 215.167969 222.78125 216.167969 222.480469 C 217.167969 222.175781 218.160156 221.847656 219.144531 221.492188 C 220.125 221.140625 221.101562 220.765625 222.066406 220.363281 C 223.03125 219.964844 223.988281 219.539062 224.929688 219.089844 C 225.875 218.644531 226.808594 218.171875 227.730469 217.679688 C 228.652344 217.1875 229.558594 216.667969 230.457031 216.132812 C 231.351562 215.59375 232.234375 215.03125 233.101562 214.453125 C 233.972656 213.871094 234.824219 213.265625 235.664062 212.644531 C 236.503906 212.019531 237.328125 211.375 238.136719 210.710938 C 238.941406 210.046875 239.734375 209.363281 240.507812 208.660156 C 241.28125 207.957031 242.039062 207.234375 242.777344 206.496094 C 243.515625 205.753906 244.234375 204.996094 244.9375 204.222656 C 245.640625 203.445312 246.320312 202.652344 246.984375 201.84375 C 247.648438 201.035156 248.289062 200.207031 248.910156 199.367188 C 249.535156 198.527344 250.136719 197.671875 250.714844 196.800781 C 251.296875 195.929688 251.855469 195.046875 252.394531 194.148438 C 252.929688 193.25 253.445312 192.339844 253.9375 191.414062 C 254.429688 190.492188 254.898438 189.554688 255.347656 188.609375 C 255.792969 187.664062 256.214844 186.707031 256.617188 185.738281 C 257.015625 184.773438 257.390625 183.796875 257.742188 182.808594 C 258.09375 181.824219 258.421875 180.828125 258.726562 179.828125 C 259.03125 178.824219 259.308594 177.816406 259.5625 176.800781 C 259.816406 175.785156 260.042969 174.765625 260.25 173.738281 C 260.453125 172.710938 260.628906 171.679688 260.785156 170.644531 C 260.9375 169.609375 261.066406 168.570312 261.167969 167.527344 C 261.269531 166.484375 261.347656 165.441406 261.398438 164.394531 C 261.449219 163.351562 261.476562 162.304688 261.476562 161.257812 C 261.476562 160.210938 261.449219 159.164062 261.398438 158.117188 C 261.347656 157.070312 261.269531 156.027344 261.167969 154.984375 C 261.066406 153.945312 260.9375 152.90625 260.785156 151.867188 C 260.628906 150.832031 260.453125 149.800781 260.25 148.773438 C 260.042969 147.75 259.816406 146.726562 259.5625 145.710938 C 259.308594 144.695312 259.03125 143.6875 258.726562 142.683594 C 258.421875 141.683594 258.09375 140.6875 257.742188 139.703125 C 257.390625 138.71875 257.015625 137.742188 256.617188 136.773438 C 256.214844 135.804688 255.792969 134.847656 255.347656 133.902344 C 254.898438 132.957031 254.429688 132.019531 253.9375 131.097656 C 253.445312 130.175781 252.929688 129.261719 252.394531 128.367188 C 251.855469 127.46875 251.296875 126.582031 250.714844 125.710938 C 250.136719 124.84375 249.535156 123.984375 248.910156 123.144531 C 248.289062 122.304688 247.648438 121.480469 246.984375 120.667969 C 246.320312 119.859375 245.640625 119.066406 244.9375 118.292969 C 244.234375 117.515625 243.515625 116.757812 242.777344 116.019531 C 242.039062 115.277344 241.28125 114.554688 240.507812 113.851562 C 239.734375 113.148438 238.941406 112.464844 238.136719 111.800781 C 237.328125 111.136719 236.503906 110.492188 235.664062 109.871094 C 234.824219 109.246094 233.972656 108.644531 233.101562 108.0625 C 232.234375 107.480469 231.351562 106.917969 230.457031 106.382812 C 229.558594 105.84375 228.652344 105.328125 227.730469 104.832031 C 226.808594 104.339844 225.875 103.871094 224.929688 103.421875 C 223.988281 102.972656 223.03125 102.550781 222.066406 102.148438 C 221.101562 101.75 220.125 101.371094 219.144531 101.019531 C 218.160156 100.667969 217.167969 100.335938 216.167969 100.035156 C 215.167969 99.730469 214.160156 99.449219 213.148438 99.195312 C 212.132812 98.941406 211.117188 98.710938 210.089844 98.507812 C 209.066406 98.304688 208.039062 98.125 207.003906 97.972656 C 205.96875 97.816406 204.933594 97.691406 203.894531 97.585938 C 202.855469 97.484375 201.8125 97.40625 200.769531 97.355469 C 199.726562 97.304688 198.679688 97.277344 197.636719 97.277344 C 196.59375 97.277344 195.546875 97.304688 194.503906 97.355469 C 193.460938 97.40625 192.417969 97.484375 191.378906 97.585938 C 190.339844 97.691406 189.304688 97.816406 188.269531 97.972656 C 187.234375 98.125 186.207031 98.304688 185.183594 98.507812 C 184.15625 98.710938 183.136719 98.941406 182.125 99.195312 C 181.113281 99.449219 180.105469 99.730469 179.105469 100.035156 C 178.105469 100.335938 177.113281 100.667969 176.128906 101.019531 C 175.144531 101.371094 174.171875 101.75 173.207031 102.148438 C 172.242188 102.550781 171.285156 102.972656 170.34375 103.421875 C 169.398438 103.871094 168.464844 104.339844 167.542969 104.832031 C 166.621094 105.328125 165.714844 105.84375 164.816406 106.382812 C 163.921875 106.917969 163.039062 107.480469 162.167969 108.0625 C 161.300781 108.644531 160.449219 109.246094 159.609375 109.871094 C 158.769531 110.492188 157.945312 111.136719 157.136719 111.800781 C 156.332031 112.464844 155.539062 113.148438 154.765625 113.851562 C 153.992188 114.554688 153.234375 115.277344 152.496094 116.019531 C 151.757812 116.757812 151.039062 117.515625 150.335938 118.292969 C 149.632812 119.066406 148.953125 119.859375 148.289062 120.667969 C 147.625 121.480469 146.984375 122.304688 146.359375 123.144531 C 145.738281 123.984375 145.136719 124.84375 144.558594 125.710938 C 143.976562 126.582031 143.417969 127.46875 142.878906 128.367188 C 142.34375 129.261719 141.828125 130.175781 141.335938 131.097656 C 140.84375 132.019531 140.375 132.957031 139.925781 133.902344 C 139.480469 134.847656 139.058594 135.804688 138.65625 136.773438 C 138.257812 137.742188 137.882812 138.71875 137.53125 139.703125 C 137.179688 140.6875 136.851562 141.683594 136.546875 142.683594 C 136.242188 143.6875 135.964844 144.695312 135.710938 145.710938 C 135.457031 146.726562 135.230469 147.75 135.023438 148.773438 C 134.820312 149.800781 134.640625 150.832031 134.488281 151.867188 C 134.335938 152.90625 134.207031 153.945312 134.105469 154.984375 C 134.003906 156.027344 133.925781 157.070312 133.875 158.117188 C 133.824219 159.164062 133.796875 160.210938 133.796875 161.257812 C 133.800781 162.304688 133.828125 163.347656 133.878906 164.394531 C 133.933594 165.4375 134.011719 166.480469 134.117188 167.523438 C 134.21875 168.566406 134.351562 169.601562 134.503906 170.636719 C 134.660156 171.671875 134.839844 172.703125 135.042969 173.730469 C 135.25 174.753906 135.480469 175.777344 135.734375 176.789062 C 135.988281 177.804688 136.269531 178.8125 136.574219 179.816406 C 136.878906 180.816406 137.207031 181.808594 137.558594 182.792969 C 137.910156 183.777344 138.289062 184.753906 138.6875 185.722656 C 139.089844 186.6875 139.511719 187.644531 139.960938 188.589844 C 140.40625 189.535156 140.878906 190.46875 141.371094 191.390625 C 141.863281 192.316406 142.378906 193.222656 142.914062 194.121094 C 143.453125 195.019531 144.011719 195.902344 144.59375 196.773438 C 145.171875 197.640625 145.773438 198.496094 146.398438 199.339844 C 147.019531 200.179688 147.660156 201.003906 148.324219 201.8125 C 148.988281 202.621094 149.667969 203.414062 150.371094 204.1875 C 151.070312 204.964844 151.792969 205.722656 152.53125 206.460938 C 153.269531 207.199219 154.023438 207.921875 154.796875 208.625 C 155.570312 209.328125 156.363281 210.011719 157.167969 210.675781 C 157.976562 211.339844 158.800781 211.984375 159.636719 212.605469 C 160.476562 213.230469 161.328125 213.832031 162.199219 214.414062 C 163.066406 214.996094 163.945312 215.558594 164.84375 216.097656 C 165.738281 216.632812 166.644531 217.152344 167.566406 217.644531 C 168.488281 218.140625 169.417969 218.609375 170.363281 219.058594 C 171.304688 219.507812 172.261719 219.929688 173.226562 220.332031 C 174.1875 220.734375 175.164062 221.109375 176.144531 221.464844 C 177.128906 221.816406 178.121094 222.148438 179.117188 222.453125 C 180.117188 222.757812 181.125 223.039062 182.136719 223.292969 C 183.148438 223.550781 184.167969 223.78125 185.191406 223.984375 C 186.214844 224.191406 187.242188 224.371094 188.273438 224.527344 C 189.308594 224.679688 190.34375 224.8125 191.382812 224.914062 C 192.421875 225.019531 193.464844 225.097656 194.507812 225.152344 C 195.550781 225.203125 196.59375 225.230469 197.636719 225.234375 Z M 197.636719 108.65625 C 199.363281 108.65625 201.082031 108.738281 202.796875 108.910156 C 204.515625 109.078125 206.21875 109.332031 207.910156 109.667969 C 209.601562 110.007812 211.273438 110.425781 212.921875 110.929688 C 214.574219 111.429688 216.195312 112.011719 217.789062 112.671875 C 219.382812 113.335938 220.941406 114.074219 222.460938 114.886719 C 223.984375 115.703125 225.460938 116.589844 226.894531 117.550781 C 228.328125 118.511719 229.710938 119.539062 231.046875 120.636719 C 232.378906 121.730469 233.65625 122.890625 234.875 124.113281 C 236.09375 125.335938 237.25 126.613281 238.34375 127.949219 C 239.4375 129.289062 240.464844 130.671875 241.421875 132.109375 C 242.382812 133.546875 243.265625 135.027344 244.082031 136.554688 C 244.894531 138.078125 245.628906 139.636719 246.289062 141.234375 C 246.949219 142.832031 247.53125 144.457031 248.03125 146.113281 C 248.53125 147.765625 248.949219 149.441406 249.285156 151.136719 C 249.625 152.832031 249.875 154.539062 250.046875 156.257812 C 250.214844 157.980469 250.300781 159.703125 250.300781 161.433594 C 250.300781 163.160156 250.214844 164.886719 250.046875 166.605469 C 249.875 168.324219 249.625 170.035156 249.285156 171.726562 C 248.949219 173.421875 248.53125 175.097656 248.03125 176.753906 C 247.53125 178.40625 246.949219 180.03125 246.289062 181.628906 C 245.628906 183.226562 244.894531 184.785156 244.082031 186.3125 C 243.265625 187.835938 242.382812 189.316406 241.421875 190.753906 C 240.464844 192.191406 239.4375 193.578125 238.34375 194.914062 C 237.25 196.25 236.09375 197.527344 234.875 198.75 C 233.65625 199.972656 232.378906 201.132812 231.046875 202.230469 C 229.710938 203.324219 228.328125 204.355469 226.894531 205.316406 C 225.460938 206.273438 223.984375 207.164062 222.460938 207.976562 C 220.941406 208.792969 219.382812 209.53125 217.789062 210.191406 C 216.195312 210.851562 214.574219 211.433594 212.921875 211.9375 C 211.273438 212.4375 209.601562 212.859375 207.910156 213.195312 C 206.21875 213.53125 204.515625 213.785156 202.796875 213.953125 C 201.082031 214.125 199.363281 214.210938 197.636719 214.210938 C 195.910156 214.210938 194.191406 214.125 192.476562 213.953125 C 190.757812 213.785156 189.054688 213.53125 187.363281 213.195312 C 185.671875 212.859375 184 212.4375 182.347656 211.9375 C 180.699219 211.433594 179.078125 210.851562 177.484375 210.191406 C 175.890625 209.53125 174.332031 208.792969 172.8125 207.976562 C 171.289062 207.164062 169.8125 206.273438 168.378906 205.316406 C 166.945312 204.355469 165.5625 203.324219 164.226562 202.230469 C 162.894531 201.132812 161.617188 199.972656 160.398438 198.75 C 159.179688 197.527344 158.023438 196.25 156.929688 194.914062 C 155.832031 193.578125 154.808594 192.191406 153.847656 190.753906 C 152.890625 189.316406 152.003906 187.835938 151.191406 186.3125 C 150.378906 184.785156 149.644531 183.226562 148.984375 181.628906 C 148.324219 180.03125 147.742188 178.40625 147.242188 176.753906 C 146.742188 175.097656 146.324219 173.421875 145.984375 171.726562 C 145.648438 170.035156 145.398438 168.324219 145.226562 166.605469 C 145.058594 164.886719 144.972656 163.160156 144.972656 161.433594 C 144.972656 159.703125 145.058594 157.980469 145.226562 156.257812 C 145.398438 154.539062 145.648438 152.832031 145.984375 151.136719 C 146.324219 149.441406 146.742188 147.765625 147.242188 146.113281 C 147.742188 144.457031 148.324219 142.832031 148.984375 141.234375 C 149.644531 139.636719 150.378906 138.078125 151.191406 136.554688 C 152.003906 135.027344 152.890625 133.546875 153.847656 132.109375 C 154.808594 130.671875 155.832031 129.289062 156.929688 127.949219 C 158.023438 126.613281 159.179688 125.335938 160.398438 124.113281 C 161.617188 122.890625 162.894531 121.730469 164.226562 120.636719 C 165.5625 119.539062 166.945312 118.511719 168.378906 117.550781 C 169.8125 116.589844 171.289062 115.703125 172.8125 114.886719 C 174.332031 114.074219 175.890625 113.335938 177.484375 112.671875 C 179.078125 112.011719 180.699219 111.429688 182.347656 110.929688 C 184 110.425781 185.671875 110.007812 187.363281 109.667969 C 189.054688 109.332031 190.757812 109.078125 192.476562 108.910156 C 194.191406 108.738281 195.910156 108.65625 197.636719 108.65625 Z M 197.636719 108.65625 " fill-opacity="1" fill-rule="nonzero"/><path fill="#c17efd" d="M 193.015625 372.890625 C 193.289062 373.246094 193.597656 373.5625 193.941406 373.84375 C 194.289062 374.125 194.664062 374.367188 195.0625 374.5625 C 195.464844 374.757812 195.882812 374.90625 196.316406 375.007812 C 196.75 375.109375 197.191406 375.160156 197.636719 375.160156 C 198.082031 375.160156 198.523438 375.109375 198.957031 375.007812 C 199.390625 374.90625 199.808594 374.757812 200.210938 374.5625 C 200.609375 374.367188 200.984375 374.125 201.328125 373.84375 C 201.675781 373.5625 201.984375 373.246094 202.257812 372.890625 L 307.40625 222.828125 L 307.757812 222.300781 C 309.074219 219.914062 310.3125 217.488281 311.46875 215.019531 C 312.628906 212.554688 313.707031 210.050781 314.703125 207.515625 C 315.699219 204.976562 316.613281 202.410156 317.441406 199.8125 C 318.273438 197.214844 319.015625 194.59375 319.675781 191.949219 C 320.339844 189.304688 320.914062 186.640625 321.402344 183.960938 C 321.886719 181.277344 322.289062 178.582031 322.601562 175.871094 C 322.917969 173.164062 323.140625 170.449219 323.28125 167.726562 C 323.417969 165.003906 323.46875 162.277344 323.429688 159.550781 C 323.390625 156.824219 323.261719 154.101562 323.046875 151.382812 C 322.832031 148.667969 322.53125 145.957031 322.140625 143.257812 C 321.75 140.5625 321.273438 137.878906 320.707031 135.210938 C 320.144531 132.542969 319.496094 129.898438 318.761719 127.273438 C 318.023438 124.648438 317.207031 122.046875 316.300781 119.476562 C 315.398438 116.902344 314.414062 114.363281 313.34375 111.855469 C 312.277344 109.347656 311.128906 106.878906 309.902344 104.445312 C 308.671875 102.011719 307.367188 99.621094 305.984375 97.273438 C 304.601562 94.925781 303.144531 92.625 301.613281 90.371094 C 300.082031 88.117188 298.480469 85.914062 296.804688 83.765625 C 295.132812 81.617188 293.390625 79.523438 291.578125 77.488281 C 289.769531 75.449219 287.898438 73.476562 285.960938 71.5625 C 284.023438 69.648438 282.023438 67.796875 279.96875 66.011719 C 277.910156 64.230469 275.796875 62.511719 273.628906 60.867188 C 271.460938 59.21875 269.242188 57.644531 266.972656 56.140625 C 264.699219 54.640625 262.382812 53.210938 260.023438 51.859375 C 257.660156 50.507812 255.253906 49.234375 252.808594 48.039062 C 250.363281 46.84375 247.882812 45.726562 245.367188 44.691406 C 242.847656 43.65625 240.300781 42.707031 237.722656 41.835938 C 235.144531 40.96875 232.539062 40.183594 229.910156 39.484375 C 227.28125 38.785156 224.628906 38.171875 221.960938 37.644531 C 219.292969 37.117188 216.609375 36.679688 213.910156 36.324219 C 211.210938 35.972656 208.503906 35.707031 205.789062 35.53125 C 203.074219 35.355469 200.355469 35.265625 197.636719 35.265625 C 194.914062 35.265625 192.199219 35.355469 189.484375 35.53125 C 186.769531 35.707031 184.0625 35.972656 181.363281 36.324219 C 178.664062 36.679688 175.980469 37.117188 173.3125 37.644531 C 170.644531 38.171875 167.992188 38.785156 165.363281 39.484375 C 162.734375 40.183594 160.128906 40.96875 157.550781 41.835938 C 154.972656 42.707031 152.425781 43.65625 149.90625 44.691406 C 147.390625 45.726562 144.910156 46.84375 142.464844 48.039062 C 140.019531 49.234375 137.613281 50.507812 135.25 51.859375 C 132.890625 53.210938 130.574219 54.640625 128.300781 56.140625 C 126.03125 57.644531 123.8125 59.21875 121.644531 60.867188 C 119.476562 62.511719 117.363281 64.230469 115.304688 66.011719 C 113.25 67.796875 111.25 69.648438 109.3125 71.5625 C 107.375 73.476562 105.503906 75.449219 103.695312 77.488281 C 101.882812 79.523438 100.140625 81.617188 98.46875 83.765625 C 96.792969 85.914062 95.191406 88.117188 93.660156 90.371094 C 92.128906 92.625 90.671875 94.925781 89.289062 97.273438 C 87.90625 99.621094 86.601562 102.011719 85.371094 104.445312 C 84.144531 106.878906 82.996094 109.347656 81.929688 111.855469 C 80.859375 114.363281 79.875 116.902344 78.972656 119.476562 C 78.066406 122.046875 77.25 124.648438 76.511719 127.273438 C 75.777344 129.898438 75.128906 132.542969 74.566406 135.210938 C 74 137.878906 73.523438 140.5625 73.132812 143.257812 C 72.742188 145.957031 72.441406 148.667969 72.226562 151.382812 C 72.011719 154.101562 71.882812 156.824219 71.84375 159.550781 C 71.804688 162.277344 71.855469 165.003906 71.992188 167.726562 C 72.132812 170.449219 72.355469 173.164062 72.671875 175.871094 C 72.984375 178.582031 73.386719 181.277344 73.871094 183.960938 C 74.359375 186.640625 74.933594 189.304688 75.59375 191.949219 C 76.257812 194.59375 77 197.214844 77.832031 199.8125 C 78.660156 202.410156 79.574219 204.976562 80.570312 207.515625 C 81.566406 210.050781 82.644531 212.554688 83.804688 215.019531 C 84.960938 217.488281 86.199219 219.914062 87.515625 222.300781 L 87.863281 222.828125 Z M 83.125 161.257812 C 83.125 159.078125 83.1875 156.902344 83.3125 154.726562 C 83.4375 152.550781 83.621094 150.378906 83.871094 148.214844 C 84.117188 146.050781 84.425781 143.894531 84.796875 141.75 C 85.164062 139.601562 85.59375 137.46875 86.085938 135.34375 C 86.578125 133.222656 87.128906 131.117188 87.738281 129.027344 C 88.351562 126.933594 89.019531 124.863281 89.75 122.8125 C 90.476562 120.757812 91.265625 118.726562 92.109375 116.71875 C 92.953125 114.710938 93.851562 112.730469 94.808594 110.773438 C 95.765625 108.816406 96.777344 106.890625 97.84375 104.992188 C 98.910156 103.09375 100.027344 101.226562 101.203125 99.390625 C 102.375 97.554688 103.597656 95.757812 104.871094 93.992188 C 106.144531 92.226562 107.46875 90.5 108.84375 88.808594 C 110.214844 87.121094 111.636719 85.472656 113.101562 83.863281 C 114.566406 82.253906 116.078125 80.691406 117.632812 79.167969 C 119.191406 77.644531 120.785156 76.167969 122.425781 74.738281 C 124.066406 73.308594 125.742188 71.925781 127.460938 70.589844 C 129.179688 69.253906 130.933594 67.96875 132.726562 66.734375 C 134.515625 65.5 136.339844 64.316406 138.199219 63.1875 C 140.058594 62.054688 141.945312 60.976562 143.863281 59.953125 C 145.785156 58.933594 147.730469 57.964844 149.707031 57.050781 C 151.679688 56.140625 153.679688 55.285156 155.699219 54.488281 C 157.722656 53.691406 159.769531 52.949219 161.832031 52.269531 C 163.898438 51.589844 165.980469 50.964844 168.082031 50.402344 C 170.179688 49.839844 172.296875 49.339844 174.425781 48.898438 C 176.554688 48.457031 178.691406 48.074219 180.84375 47.757812 C 182.992188 47.4375 185.152344 47.179688 187.316406 46.984375 C 189.480469 46.785156 191.648438 46.652344 193.824219 46.578125 C 195.996094 46.507812 198.167969 46.496094 200.34375 46.546875 C 202.515625 46.597656 204.683594 46.710938 206.851562 46.886719 C 209.019531 47.0625 211.179688 47.300781 213.332031 47.597656 C 215.484375 47.898438 217.628906 48.257812 219.761719 48.679688 C 221.894531 49.097656 224.015625 49.582031 226.121094 50.121094 C 228.226562 50.664062 230.3125 51.265625 232.386719 51.925781 C 234.457031 52.589844 236.507812 53.308594 238.539062 54.085938 C 240.570312 54.863281 242.574219 55.699219 244.558594 56.59375 C 246.542969 57.484375 248.496094 58.433594 250.425781 59.4375 C 252.355469 60.441406 254.253906 61.5 256.125 62.613281 C 257.992188 63.726562 259.828125 64.890625 261.632812 66.109375 C 263.433594 67.328125 265.199219 68.59375 266.933594 69.914062 C 268.664062 71.230469 270.355469 72.597656 272.007812 74.011719 C 273.660156 75.425781 275.273438 76.886719 276.84375 78.394531 C 278.410156 79.902344 279.9375 81.453125 281.417969 83.046875 C 282.902344 84.640625 284.335938 86.277344 285.726562 87.953125 C 287.113281 89.628906 288.457031 91.34375 289.746094 93.09375 C 291.039062 94.847656 292.277344 96.636719 293.46875 98.457031 C 294.660156 100.28125 295.796875 102.136719 296.882812 104.027344 C 297.964844 105.914062 298.996094 107.832031 299.972656 109.777344 C 300.945312 111.726562 301.867188 113.699219 302.730469 115.699219 C 303.59375 117.695312 304.398438 119.71875 305.148438 121.765625 C 305.894531 123.8125 306.585938 125.875 307.214844 127.960938 C 307.847656 130.046875 308.417969 132.148438 308.929688 134.265625 C 309.441406 136.382812 309.894531 138.511719 310.285156 140.65625 C 310.675781 142.796875 311.003906 144.949219 311.273438 147.113281 C 311.539062 149.273438 311.746094 151.441406 311.890625 153.617188 C 312.039062 155.789062 312.121094 157.964844 312.140625 160.144531 C 312.164062 162.324219 312.125 164.5 312.019531 166.675781 C 311.917969 168.851562 311.753906 171.023438 311.527344 173.191406 C 311.304688 175.359375 311.015625 177.515625 310.667969 179.667969 C 310.320312 181.816406 309.910156 183.957031 309.441406 186.085938 C 308.96875 188.210938 308.441406 190.324219 307.851562 192.421875 C 307.261719 194.515625 306.609375 196.59375 305.902344 198.65625 C 305.195312 200.714844 304.429688 202.753906 303.605469 204.769531 C 302.78125 206.785156 301.902344 208.777344 300.964844 210.742188 C 300.027344 212.707031 299.035156 214.644531 297.988281 216.554688 L 197.636719 359.757812 L 97.285156 216.554688 C 92.644531 208.082031 89.121094 199.164062 86.726562 189.800781 C 84.328125 180.4375 83.128906 170.921875 83.125 161.257812 Z M 83.125 161.257812 " fill-opacity="1" fill-rule="nonzero"/></svg>