<svg width="2147" height="1347" viewBox="0 0 2147 1347" fill="none" xmlns="http://www.w3.org/2000/svg">
<path d="M809.014 1333.69C803.052 1327.7 648.805 1058.19 572.426 924.173H779.207L1010.27 1333.69C946.313 1336.18 814.975 1339.67 809.014 1333.69Z" fill="url(#paint0_radial_11_4)" stroke="white" stroke-width="20"/>
<path d="M10 206.611V15.7407L1063.01 14.8403V206.611H634.272V665.779L743.698 851.247H549.959L438.738 665.779V206.611H10Z" fill="url(#paint1_radial_11_4)" stroke="white" stroke-width="20"/>
<path d="M1138.97 529.85V10H1336.6L1847.59 846.407H1657.08L1313.9 301.387V529.85H1138.97Z" fill="url(#paint2_radial_11_4)" stroke="white" stroke-width="20"/>
<path d="M1334.02 964.305H994.842L1159.76 1046.9V1330.81H2129L1869.57 896.852H1679.58L1831.92 1152.56H1334.02V964.305Z" fill="url(#paint3_radial_11_4)" stroke="white" stroke-width="20"/>
<defs>
<radialGradient id="paint0_radial_11_4" cx="0" cy="0" r="1" gradientUnits="userSpaceOnUse" gradientTransform="translate(337.979 804.38) rotate(49.1369) scale(1445.23 2379.93)">
<stop offset="0.0518271" stop-color="#F0EFF3"/>
<stop offset="0.143422" stop-color="#972A08"/>
<stop offset="0.189803" stop-color="#9E0529"/>
<stop offset="0.240012" stop-color="#9F002D"/>
<stop offset="0.35473" stop-color="#9D1DD9"/>
<stop offset="0.569948" stop-color="#3909A0"/>
</radialGradient>
<radialGradient id="paint1_radial_11_4" cx="0" cy="0" r="1" gradientUnits="userSpaceOnUse" gradientTransform="translate(-553.837 -227.87) rotate(44.2402) scale(3174.13 5280.13)">
<stop offset="0.0518271" stop-color="#F0EFF3"/>
<stop offset="0.143422" stop-color="#972A08"/>
<stop offset="0.189803" stop-color="#9E0529"/>
<stop offset="0.240012" stop-color="#9F002D"/>
<stop offset="0.35473" stop-color="#9D1DD9"/>
<stop offset="0.569948" stop-color="#3909A0"/>
</radialGradient>
<radialGradient id="paint2_radial_11_4" cx="0" cy="0" r="1" gradientUnits="userSpaceOnUse" gradientTransform="translate(759.529 -232.71) rotate(55.3539) scale(2691.8 4189.97)">
<stop offset="0.0518271" stop-color="#F0EFF3"/>
<stop offset="0.143422" stop-color="#972A08"/>
<stop offset="0.189803" stop-color="#9E0529"/>
<stop offset="0.240012" stop-color="#9F002D"/>
<stop offset="0.35473" stop-color="#9D1DD9"/>
<stop offset="0.569948" stop-color="#3909A0"/>
</radialGradient>
<radialGradient id="paint3_radial_11_4" cx="0" cy="0" r="1" gradientUnits="userSpaceOnUse" gradientTransform="translate(387.553 770.925) rotate(25.1315) scale(2705.36 3461.91)">
<stop offset="0.0518271" stop-color="#F0EFF3"/>
<stop offset="0.143422" stop-color="#972A08"/>
<stop offset="0.189803" stop-color="#9E0529"/>
<stop offset="0.240012" stop-color="#9F002D"/>
<stop offset="0.35473" stop-color="#9D1DD9"/>
<stop offset="0.569948" stop-color="#3909A0"/>
</radialGradient>
</defs>
</svg>
