<svg xmlns="http://www.w3.org/2000/svg" xmlns:xlink="http://www.w3.org/1999/xlink" width="500" zoomAndPan="magnify" viewBox="0 0 375 374.999991" height="500" preserveAspectRatio="xMidYMid meet" version="1.0"><defs><clipPath id="9cb989c3fb"><path d="M 55 60 L 312 60 L 312 324.410156 L 55 324.410156 Z M 55 60 " clip-rule="nonzero"/></clipPath></defs><g clip-path="url(#9cb989c3fb)"><path fill="#c17efd" d="M 300.089844 295.109375 L 300.148438 295.109375 Z M 99.453125 72.5625 C 96.914062 72.5625 94.515625 73.714844 91.90625 75.996094 C 91.621094 76.265625 87.890625 79.800781 85.464844 82.109375 L 83.347656 84.109375 C 70.96875 95.671875 65.359375 116.480469 69.050781 137.136719 C 70.238281 143.808594 72.15625 150.722656 74.753906 157.675781 C 87.832031 192.78125 112.664062 223.296875 131.199219 242.726562 C 149.648438 262.28125 178.824219 288.691406 213.199219 303.621094 C 220.015625 306.578125 226.820312 308.867188 233.421875 310.410156 C 253.867188 315.199219 274.96875 310.714844 287.175781 298.988281 L 289.210938 297.054688 C 291.574219 294.828125 295.261719 291.339844 295.796875 290.824219 C 303.398438 283.011719 299.601562 276.515625 284.351562 261.019531 L 280.539062 257.109375 C 270.878906 247.09375 254.671875 230.324219 240.972656 231.957031 C 237.246094 232.398438 233.359375 235.113281 229.242188 237.984375 C 225.15625 240.832031 220.933594 243.773438 215.867188 245.378906 C 202.269531 249.6875 188.476562 246.855469 177.015625 237.421875 C 170.167969 231.777344 163.195312 225.175781 156.863281 218.347656 C 150.457031 211.753906 144.238281 204.445312 138.972656 197.316406 C 130.160156 185.382812 128.074219 171.472656 133.101562 158.132812 C 134.976562 153.160156 138.144531 149.105469 141.210938 145.183594 C 144.300781 141.230469 147.21875 137.496094 147.855469 133.800781 C 150.214844 120.1875 134.328125 103.15625 124.835938 92.976562 L 121.136719 88.964844 C 111.078125 77.96875 104.957031 72.5625 99.453125 72.5625 Z M 249.921875 324.410156 C 243.085938 324.410156 236.515625 323.578125 230.65625 322.207031 C 223.351562 320.5 215.847656 317.980469 208.359375 314.730469 C 172.101562 298.988281 141.597656 271.417969 122.398438 251.0625 C 103.101562 230.839844 77.183594 198.929688 63.386719 161.90625 C 60.535156 154.269531 58.429688 146.648438 57.109375 139.265625 C 53.613281 119.695312 56.488281 92.601562 75.066406 75.265625 L 77.113281 73.316406 C 79.699219 70.863281 83.722656 67.046875 83.886719 66.90625 C 102.46875 50.605469 119.09375 68.769531 130.085938 80.789062 L 133.710938 84.71875 C 144.734375 96.539062 163.1875 116.328125 159.808594 135.867188 C 158.648438 142.550781 154.464844 147.914062 150.769531 152.644531 C 148.148438 155.992188 145.667969 159.164062 144.449219 162.402344 C 140.867188 171.902344 142.351562 181.488281 148.730469 190.121094 C 153.679688 196.820312 159.535156 203.695312 165.664062 210.011719 C 171.730469 216.554688 178.292969 222.761719 184.730469 228.074219 C 193.023438 234.902344 202.523438 236.886719 212.207031 233.832031 C 215.507812 232.777344 218.804688 230.480469 222.296875 228.046875 C 227.222656 224.617188 232.796875 220.71875 239.546875 219.925781 C 259.3125 217.597656 278.046875 237.066406 289.269531 248.703125 L 293.003906 252.523438 C 304.425781 264.140625 321.695312 281.695312 304.425781 299.34375 C 304.15625 299.601562 300.105469 303.445312 297.546875 305.859375 L 295.574219 307.726562 C 282.800781 320 265.683594 324.410156 249.921875 324.410156 " fill-opacity="1" fill-rule="nonzero"/></g></svg>